# xmcd CD database file
#
# Track frame offsets:
#	150
#	18407
#	35636
#	51732
#	65030
#	78913
#	97947
#	111978
#	131675
#	143623
#
# Disc length: 2091 seconds
#
# Revision: 0
# Processed by: cddbd v1.5PL3 Copyright (c) Steve Scherf et al.
# Submitted via: Feurio! 1.67 - http://www.feurio.com
#
DISCID=8c08290a
DTITLE=Teresa Farris - Teresa Farris
DYEAR=2004
DGENRE=Country
TTITLE0=What You Get Is What You See
TTITLE1=Temptation
TTITLE2=Take It On The Run
TTITLE3=Naked In The Pouring Rain
TTITLE4=I Feel Like A New Man Tonight
TTITLE5=So I Say
TTITLE6=I Love Him I Think
TTITLE7=Be Tender With Me Baby
TTITLE8=That's Not The Kind Of Love I Need Tonight
TTITLE9=All I Need
EXTD=
EXTT0=
EXTT1=
EXTT2=
EXTT3=
EXTT4=
EXTT5=
EXTT6=
EXTT7=
EXTT8=
EXTT9=
PLAYORDER=
